<?xml version="1.0" encoding="UTF-8"?>
<!--
  Yusta Labs · Icon sprite
  Line icons · 24×24 · stroke-width 1.75 · currentColor · rounded geometry.
  Usage: <svg class="ico"><use href="/assets/icons.svg#shop"/></svg>
-->
<svg xmlns="http://www.w3.org/2000/svg" style="display:none" aria-hidden="true">
  <defs>
    <style>
      symbol{stroke:currentColor;stroke-width:1.75;stroke-linecap:round;stroke-linejoin:round;fill:none;}
    </style>
  </defs>

  <!-- ─── Rubros ─────────────────────────────────────────────── -->

  <symbol id="shop" viewBox="0 0 24 24">
    <path d="M3.5 9 5 4h14l1.5 5"/>
    <path d="M4 9v10a1 1 0 0 0 1 1h14a1 1 0 0 0 1-1V9"/>
    <path d="M3.5 9a3 3 0 0 0 5.6 0 3 3 0 0 0 5.8 0 3 3 0 0 0 5.6 0"/>
    <path d="M10 20v-5h4v5"/>
  </symbol>

  <symbol id="shirt" viewBox="0 0 24 24">
    <path d="M8 3 5 5 3 8l3 3v9a1 1 0 0 0 1 1h10a1 1 0 0 0 1-1v-9l3-3-2-3-3-2"/>
    <path d="M9 3a3 3 0 0 0 6 0"/>
  </symbol>

  <symbol id="hanger" viewBox="0 0 24 24">
    <path d="M12 8a2 2 0 1 1 2-2"/>
    <path d="M12 8v2"/>
    <path d="M3.5 18 12 10l8.5 8a1 1 0 0 1-.7 1.7H4.2A1 1 0 0 1 3.5 18Z"/>
  </symbol>

  <symbol id="scissors" viewBox="0 0 24 24">
    <circle cx="6" cy="7" r="2.4"/>
    <circle cx="6" cy="17" r="2.4"/>
    <line x1="20" y1="4" x2="8.2" y2="15.8"/>
    <line x1="14" y1="13" x2="20" y2="20"/>
    <line x1="8.2" y1="8.2" x2="11.5" y2="11.5"/>
  </symbol>

  <symbol id="wrench" viewBox="0 0 24 24">
    <path d="M14.5 4a4.5 4.5 0 0 1 5.6 5.6l-2.6-2.6-2 2 2.6 2.6A4.5 4.5 0 0 1 12.5 6L4 14.5a2.1 2.1 0 0 0 3 3L15.5 9"/>
  </symbol>

  <symbol id="cart" viewBox="0 0 24 24">
    <path d="M3 4h2.2L7 16h11l2-8H7"/>
    <circle cx="9" cy="20" r="1.4"/>
    <circle cx="17" cy="20" r="1.4"/>
  </symbol>

  <symbol id="paw" viewBox="0 0 24 24">
    <ellipse cx="6.5" cy="9" rx="1.6" ry="2.2"/>
    <ellipse cx="17.5" cy="9" rx="1.6" ry="2.2"/>
    <ellipse cx="9.5" cy="5.5" rx="1.4" ry="1.9"/>
    <ellipse cx="14.5" cy="5.5" rx="1.4" ry="1.9"/>
    <path d="M12 11.5c-3.2 0-5 2.6-5 4.8 0 2 1.7 3.2 3.4 3.2.8 0 1.1-.4 1.6-.4s.8.4 1.6.4c1.7 0 3.4-1.2 3.4-3.2 0-2.2-1.8-4.8-5-4.8Z"/>
  </symbol>

  <symbol id="pizza" viewBox="0 0 24 24">
    <path d="M12 3a13 13 0 0 1 9 4.2L12 21 3 7.2A13 13 0 0 1 12 3Z"/>
    <path d="M5 9.5l14 0"/>
    <circle cx="9.5" cy="11.5" r="0.9"/>
    <circle cx="14.5" cy="11.5" r="0.9"/>
    <circle cx="12" cy="15.5" r="0.9"/>
  </symbol>

  <symbol id="dumbbell" viewBox="0 0 24 24">
    <rect x="2" y="9.5" width="2.6" height="5" rx="0.6"/>
    <rect x="19.4" y="9.5" width="2.6" height="5" rx="0.6"/>
    <rect x="5" y="7.5" width="3" height="9" rx="0.8"/>
    <rect x="16" y="7.5" width="3" height="9" rx="0.8"/>
    <line x1="8" y1="12" x2="16" y2="12"/>
  </symbol>

  <symbol id="car" viewBox="0 0 24 24">
    <path d="M4 16v2a1 1 0 0 0 1 1h1a1 1 0 0 0 1-1v-1"/>
    <path d="M16 17v1a1 1 0 0 0 1 1h1a1 1 0 0 0 1-1v-2"/>
    <path d="M3 13.5 5 8a2 2 0 0 1 2-1.4h10A2 2 0 0 1 19 8l2 5.5"/>
    <rect x="3" y="13.5" width="18" height="4" rx="1.2"/>
    <circle cx="7" cy="15.5" r="1"/>
    <circle cx="17" cy="15.5" r="1"/>
  </symbol>

  <symbol id="building" viewBox="0 0 24 24">
    <rect x="4" y="3" width="16" height="18" rx="1.4"/>
    <line x1="9" y1="7" x2="9" y2="7.01"/>
    <line x1="12" y1="7" x2="12" y2="7.01"/>
    <line x1="15" y1="7" x2="15" y2="7.01"/>
    <line x1="9" y1="11" x2="9" y2="11.01"/>
    <line x1="12" y1="11" x2="12" y2="11.01"/>
    <line x1="15" y1="11" x2="15" y2="11.01"/>
    <path d="M10 21v-4h4v4"/>
  </symbol>

  <symbol id="package" viewBox="0 0 24 24">
    <path d="M21 8 12 3 3 8v8l9 5 9-5V8Z"/>
    <path d="M3 8l9 5 9-5"/>
    <line x1="12" y1="13" x2="12" y2="21"/>
    <path d="M7.5 5.5 16.5 10.5"/>
  </symbol>

  <symbol id="dollar" viewBox="0 0 24 24">
    <line x1="12" y1="3" x2="12" y2="21"/>
    <path d="M16 7H10a3 3 0 0 0 0 6h4a3 3 0 0 1 0 6H8"/>
  </symbol>

  <symbol id="key" viewBox="0 0 24 24">
    <circle cx="8" cy="14" r="3.5"/>
    <path d="M10.5 11.5 21 3"/>
    <path d="M17 7l3 3"/>
    <path d="M14 10l2.5 2.5"/>
  </symbol>

  <!-- ─── UI / status ────────────────────────────────────────── -->

  <symbol id="lock" viewBox="0 0 24 24">
    <rect x="4.5" y="11" width="15" height="9" rx="1.6"/>
    <path d="M8 11V8a4 4 0 0 1 8 0v3"/>
    <circle cx="12" cy="15.5" r="1.1"/>
  </symbol>

  <symbol id="unlock" viewBox="0 0 24 24">
    <rect x="4.5" y="11" width="15" height="9" rx="1.6"/>
    <path d="M8 11V8a4 4 0 0 1 7.5-2"/>
    <circle cx="12" cy="15.5" r="1.1"/>
  </symbol>

  <symbol id="check" viewBox="0 0 24 24">
    <polyline points="4.5 12.5 9.5 17.5 19.5 7"/>
  </symbol>

  <symbol id="check-circle" viewBox="0 0 24 24">
    <circle cx="12" cy="12" r="9"/>
    <polyline points="8 12.5 11 15.5 16.5 9.5"/>
  </symbol>

  <symbol id="arrow-right" viewBox="0 0 24 24">
    <line x1="4" y1="12" x2="20" y2="12"/>
    <polyline points="14 6 20 12 14 18"/>
  </symbol>

  <symbol id="chevron-down" viewBox="0 0 24 24">
    <polyline points="6 9 12 15 18 9"/>
  </symbol>

  <symbol id="eye" viewBox="0 0 24 24">
    <path d="M2 12s3.5-7 10-7 10 7 10 7-3.5 7-10 7S2 12 2 12Z"/>
    <circle cx="12" cy="12" r="3"/>
  </symbol>

  <symbol id="bolt" viewBox="0 0 24 24">
    <polygon points="13 2 4 14 11 14 10 22 20 9 13 9 14 2"/>
  </symbol>

  <symbol id="shield" viewBox="0 0 24 24">
    <path d="M12 3 4 6v6c0 5 3.5 8.5 8 9 4.5-.5 8-4 8-9V6Z"/>
    <polyline points="9 12 11.5 14.5 16 10"/>
  </symbol>

  <symbol id="flag-ar" viewBox="0 0 24 24">
    <line x1="5" y1="3" x2="5" y2="21"/>
    <rect x="5" y="4" width="14" height="11" rx="0.5" stroke-width="1.4"/>
    <line x1="5" y1="9.5" x2="19" y2="9.5" stroke-width="1.4"/>
    <circle cx="12" cy="9.5" r="1.4" stroke-width="1.4"/>
  </symbol>

  <symbol id="sparkle" viewBox="0 0 24 24">
    <path d="M12 3v4"/>
    <path d="M12 17v4"/>
    <path d="M3 12h4"/>
    <path d="M17 12h4"/>
    <path d="M12 7c0 2.8 2.2 5 5 5-2.8 0-5 2.2-5 5 0-2.8-2.2-5-5-5 2.8 0 5-2.2 5-5Z"/>
  </symbol>

  <symbol id="heart" viewBox="0 0 24 24">
    <path d="M12 20s-7-4.4-7-10a4 4 0 0 1 7-2.6A4 4 0 0 1 19 10c0 5.6-7 10-7 10Z"/>
  </symbol>

  <symbol id="megaphone" viewBox="0 0 24 24">
    <path d="M3 11v3a1 1 0 0 0 1 1h2"/>
    <path d="M6 9 18 4v17l-12-5"/>
    <path d="M9 15v3a2 2 0 0 0 4 0v-1"/>
  </symbol>

  <symbol id="chart-bar" viewBox="0 0 24 24">
    <line x1="4" y1="20" x2="20" y2="20"/>
    <rect x="6" y="13" width="3" height="6" rx="0.4"/>
    <rect x="11" y="9" width="3" height="10" rx="0.4"/>
    <rect x="16" y="5" width="3" height="14" rx="0.4"/>
  </symbol>

  <symbol id="trending-up" viewBox="0 0 24 24">
    <polyline points="3 17 9 11 13 15 21 7"/>
    <polyline points="15 7 21 7 21 13"/>
  </symbol>

  <symbol id="trending-down" viewBox="0 0 24 24">
    <polyline points="3 7 9 13 13 9 21 17"/>
    <polyline points="15 17 21 17 21 11"/>
  </symbol>

  <symbol id="alert" viewBox="0 0 24 24">
    <path d="M12 3 2.5 20h19Z"/>
    <line x1="12" y1="10" x2="12" y2="14"/>
    <line x1="12" y1="17" x2="12" y2="17.01"/>
  </symbol>

  <symbol id="lightbulb" viewBox="0 0 24 24">
    <path d="M9 17h6"/>
    <path d="M10 20h4"/>
    <path d="M12 3a6 6 0 0 1 4 10.5c-.7.7-1 1.5-1 2.5v1H9v-1c0-1-.3-1.8-1-2.5A6 6 0 0 1 12 3Z"/>
  </symbol>

  <symbol id="tools" viewBox="0 0 24 24">
    <path d="M14.7 6.3a4 4 0 0 0 5 5L17 14l3 3a2 2 0 0 1-2.8 2.8l-3-3-2.6 2.6a4 4 0 0 1-5-5L9.3 11.7l-5-5a2 2 0 0 1 2.8-2.8l5 5Z"/>
  </symbol>

  <symbol id="ticket" viewBox="0 0 24 24">
    <path d="M3 8a2 2 0 0 1 2-2h14a2 2 0 0 1 2 2v2a2 2 0 0 0 0 4v2a2 2 0 0 1-2 2H5a2 2 0 0 1-2-2v-2a2 2 0 0 0 0-4Z"/>
    <line x1="12" y1="6" x2="12" y2="9"/>
    <line x1="12" y1="11.5" x2="12" y2="14.5"/>
    <line x1="12" y1="17" x2="12" y2="18"/>
  </symbol>

  <symbol id="target" viewBox="0 0 24 24">
    <circle cx="12" cy="12" r="9"/>
    <circle cx="12" cy="12" r="5.5"/>
    <circle cx="12" cy="12" r="2"/>
  </symbol>

  <!-- ─── Integraciones ──────────────────────────────────────── -->

  <symbol id="chat" viewBox="0 0 24 24">
    <path d="M21 12a8 8 0 0 1-12 6.9L4 20l1.1-4A8 8 0 1 1 21 12Z"/>
    <line x1="9" y1="11.5" x2="9" y2="11.51"/>
    <line x1="12" y1="11.5" x2="12" y2="11.51"/>
    <line x1="15" y1="11.5" x2="15" y2="11.51"/>
  </symbol>

  <symbol id="credit-card" viewBox="0 0 24 24">
    <rect x="3" y="6" width="18" height="13" rx="1.6"/>
    <line x1="3" y1="10.5" x2="21" y2="10.5"/>
    <line x1="6.5" y1="15" x2="9.5" y2="15"/>
  </symbol>

  <symbol id="bank" viewBox="0 0 24 24">
    <polygon points="3 9 12 4 21 9"/>
    <line x1="3" y1="9.2" x2="21" y2="9.2"/>
    <line x1="6" y1="11" x2="6" y2="17"/>
    <line x1="10" y1="11" x2="10" y2="17"/>
    <line x1="14" y1="11" x2="14" y2="17"/>
    <line x1="18" y1="11" x2="18" y2="17"/>
    <line x1="3" y1="20" x2="21" y2="20"/>
  </symbol>

  <symbol id="cash" viewBox="0 0 24 24">
    <rect x="2.5" y="6.5" width="19" height="11" rx="1.4"/>
    <circle cx="12" cy="12" r="2.5"/>
    <line x1="6" y1="9.5" x2="6" y2="9.51"/>
    <line x1="18" y1="14.5" x2="18" y2="14.51"/>
  </symbol>

  <symbol id="receipt" viewBox="0 0 24 24">
    <path d="M5 3h14v18l-2.5-1.5-2 1.5-2-1.5-2 1.5-2-1.5L5 21Z"/>
    <line x1="8" y1="8" x2="16" y2="8"/>
    <line x1="8" y1="12" x2="16" y2="12"/>
    <line x1="8" y1="16" x2="13" y2="16"/>
  </symbol>

  <symbol id="brain" viewBox="0 0 24 24">
    <path d="M12 5a2.8 2.8 0 0 0-5.5.6A3 3 0 0 0 5 11a3 3 0 0 0 .8 5.4A2.8 2.8 0 0 0 9 19a3 3 0 0 0 3-1.5"/>
    <path d="M12 5a2.8 2.8 0 0 1 5.5.6A3 3 0 0 1 19 11a3 3 0 0 1-.8 5.4A2.8 2.8 0 0 1 15 19a3 3 0 0 1-3-1.5"/>
    <line x1="12" y1="5" x2="12" y2="17.5"/>
  </symbol>

  <symbol id="calendar" viewBox="0 0 24 24">
    <rect x="3.5" y="5" width="17" height="15.5" rx="1.6"/>
    <line x1="3.5" y1="9.5" x2="20.5" y2="9.5"/>
    <line x1="8" y1="3" x2="8" y2="6.5"/>
    <line x1="16" y1="3" x2="16" y2="6.5"/>
    <line x1="8" y1="13" x2="8" y2="13.01"/>
    <line x1="12" y1="13" x2="12" y2="13.01"/>
    <line x1="16" y1="13" x2="16" y2="13.01"/>
    <line x1="8" y1="17" x2="8" y2="17.01"/>
    <line x1="12" y1="17" x2="12" y2="17.01"/>
  </symbol>

  <symbol id="flame" viewBox="0 0 24 24">
    <path d="M12 3s-1 3 1 5 4 3 4 6.5A5.5 5.5 0 0 1 6.5 14c0-2.5 2-3.5 2-6 0 0 2 1.5 2 4 1-1.5.5-5 1.5-9Z"/>
  </symbol>

  <symbol id="instagram" viewBox="0 0 24 24">
    <rect x="3.5" y="3.5" width="17" height="17" rx="4.5"/>
    <circle cx="12" cy="12" r="4"/>
    <circle cx="17" cy="7" r="0.9"/>
  </symbol>

  <symbol id="cloud" viewBox="0 0 24 24">
    <path d="M7 18a4.5 4.5 0 0 1 0-9 6 6 0 0 1 11.7 1.5A4 4 0 0 1 18 18Z"/>
  </symbol>

  <symbol id="cube" viewBox="0 0 24 24">
    <path d="M21 8 12 3 3 8v8l9 5 9-5V8Z"/>
    <polyline points="3 8 12 13 21 8"/>
    <line x1="12" y1="13" x2="12" y2="21"/>
  </symbol>

  <symbol id="route" viewBox="0 0 24 24">
    <circle cx="6" cy="5" r="2.5"/>
    <circle cx="18" cy="19" r="2.5"/>
    <path d="M6 7.5V11a3 3 0 0 0 3 3h6a3 3 0 0 1 3 3v0.5"/>
  </symbol>

  <symbol id="motorcycle" viewBox="0 0 24 24">
    <circle cx="5.5" cy="16" r="3"/>
    <circle cx="18.5" cy="16" r="3"/>
    <path d="M8 16h6l3-7h2"/>
    <path d="M14 9h-3"/>
    <path d="M11 16 14 9"/>
  </symbol>

  <symbol id="van" viewBox="0 0 24 24">
    <path d="M2 16V8a1 1 0 0 1 1-1h11v9"/>
    <path d="M14 10h4l3 3v3h-2"/>
    <circle cx="7" cy="17" r="1.5"/>
    <circle cx="17" cy="17" r="1.5"/>
    <line x1="2" y1="16" x2="5.5" y2="16"/>
    <line x1="9" y1="16" x2="15.5" y2="16"/>
  </symbol>

  <symbol id="home" viewBox="0 0 24 24">
    <path d="M4 11 12 4l8 7v9a1 1 0 0 1-1 1h-4v-6h-6v6H5a1 1 0 0 1-1-1Z"/>
  </symbol>

  <symbol id="users" viewBox="0 0 24 24">
    <circle cx="9" cy="8" r="3.2"/>
    <path d="M3 19a6 6 0 0 1 12 0"/>
    <path d="M16 4.5a3 3 0 0 1 0 6"/>
    <path d="M17 19a5.5 5.5 0 0 0-3-5"/>
  </symbol>

  <symbol id="gift" viewBox="0 0 24 24">
    <rect x="3.5" y="9" width="17" height="11" rx="1.2"/>
    <line x1="12" y1="9" x2="12" y2="20"/>
    <line x1="3.5" y1="13" x2="20.5" y2="13"/>
    <path d="M8 9c-2 0-3-1-3-2.5S6 4 7.5 4c2 0 3 2 4.5 5"/>
    <path d="M16 9c2 0 3-1 3-2.5S18 4 16.5 4c-2 0-3 2-4.5 5"/>
  </symbol>

  <symbol id="globe" viewBox="0 0 24 24">
    <circle cx="12" cy="12" r="9"/>
    <ellipse cx="12" cy="12" rx="4" ry="9"/>
    <line x1="3" y1="12" x2="21" y2="12"/>
  </symbol>

  <symbol id="rocket" viewBox="0 0 24 24">
    <path d="M14 4c4 0 6 2 6 6 0 4-4 8-7 9l-3-3c1-3 5-7 9-7"/>
    <path d="M9 12 6.5 13a2 2 0 0 0-1.2 1.5L4.5 18l3.5-.8A2 2 0 0 0 9.5 16L11 14"/>
    <circle cx="14.5" cy="9.5" r="1.3"/>
  </symbol>

</svg>
